<?xml version="1.0" encoding="utf-8"?>
<!-- Generator: Adobe Illustrator 23.0.4, SVG Export Plug-In . SVG Version: 6.00 Build 0)  -->
<svg version="1.1" id="Layer_1" xmlns="http://www.w3.org/2000/svg" xmlns:xlink="http://www.w3.org/1999/xlink" x="0px" y="0px"
	 viewBox="0 0 512 512" style="enable-background:new 0 0 512 512;" xml:space="preserve">
<style type="text/css">
	.st0{fill:#DBDBDB;}
	.st1{fill:#4FC1EA;}
</style>
<path class="st0" d="M494.5,158.9h-80.1l47.8-53.3c2.7-3,4-6.8,3.8-10.7c-0.2-4-2-7.6-4.9-10.3l-20.6-18.5c-6.1-5.5-15.5-5-21,1.1
	l-82.3,91.6H193.9c-4.1,0-7.5,3.4-7.5,7.5s3.4,7.5,7.5,7.5h129.8l-33.5,37.2c-2.7,3-4,6.8-3.8,10.7c0,0.5,0.1,0.9,0.1,1.4
	l-11.5,31.1c-1.7,4.6-0.4,9.7,3.2,13c2.2,2,5.1,3.1,8,3.1c1.8,0,3.6-0.4,5.3-1.3l29.7-14.8c0.2,0,0.4,0,0.6,0c0.3,0,0.5,0,0.8,0
	c4-0.2,7.6-2,10.3-4.9l67.9-75.6h93.6c1.4,0,2.5,1.1,2.5,2.5v289c0,1.4-1.1,2.5-2.5,2.5h-54.6c-4.1,0-7.5,3.4-7.5,7.5
	c0,4.1,3.4,7.5,7.5,7.5h54.6c9.6,0,17.5-7.9,17.5-17.5v-289C512,166.7,504.1,158.9,494.5,158.9z M451,95.7l-8.9,9.9l-20.4-18.3
	l8.9-9.9L451,95.7z M411.7,98.4l4.6,4.1L306.1,225.2l-4.6-4.2L411.7,98.4z M297.3,237.5l8.7,7.8l-14.1,7L297.3,237.5z M321.9,239.4
	l-4.6-4.1l110.2-122.6l4.6,4.1L321.9,239.4z"/>
<path class="st0" d="M407.3,467.8H69.9c-30.3,0-54.9-24.6-54.9-54.9v-4c0-30.3,24.6-54.9,54.9-54.9h15.4c9.7,0,17.5-7.9,17.5-17.5
	V173.9h58.4c4.1,0,7.5-3.4,7.5-7.5c0-4.1-3.4-7.5-7.5-7.5h-58.4v-26c0-4.1-3.4-7.5-7.5-7.5c-4.1,0-7.5,3.4-7.5,7.5v203.7
	c0,1.4-1.1,2.5-2.5,2.5H69.9c-22.3,0-42.1,10.5-54.9,26.7V99.9C15,69.6,39.6,45,69.9,45h15.4c1.4,0,2.5,1.1,2.5,2.5v52.7
	c0,4.1,3.4,7.5,7.5,7.5c4.1,0,7.5-3.4,7.5-7.5V47.5c0-9.6-7.8-17.5-17.5-17.5H69.9C31.4,30,0,61.4,0,99.9v312.9
	c0,38.6,31.4,69.9,69.9,69.9h337.3c4.1,0,7.5-3.4,7.5-7.5C414.8,471.2,411.4,467.8,407.3,467.8z"/>
<path class="st1" d="M400.2,238.1c-30.6,0-55.8,24-57.6,54.2h-34.5c-4.1,0-7.5,3.4-7.5,7.5v85.7c0,4.1,3.4,7.5,7.5,7.5h85.7
	c4.1,0,7.5-3.4,7.5-7.5v-32.1c31.3-0.6,56.6-26.2,56.6-57.6C457.9,263.9,432,238.1,400.2,238.1z M386.3,336.1
	c-13.1-4.5-23.4-15.3-27.2-28.8h27.2V336.1z M315.6,377.9v-70.7h28.1c4.4,21.8,21.2,39.1,42.6,44.4v26.2H315.6z M401.3,338.4v-38.6
	c0-4.1-3.4-7.5-7.5-7.5h-36.1c1.8-21.9,20.2-39.2,42.5-39.2c23.5,0,42.7,19.1,42.7,42.7C442.9,318.9,424.3,337.8,401.3,338.4z"/>
<path class="st1" d="M428.1,358.6c-4.1,0-7.5,3.4-7.5,7.5c0,4.1,3.4,7.5,7.5,7.5h16.7c4.1,0,7.5-3.4,7.5-7.5c0-4.1-3.4-7.5-7.5-7.5
	H428.1z"/>
<path class="st1" d="M452.2,385.4c0-4.1-3.4-7.5-7.5-7.5h-16.7c-4.1,0-7.5,3.4-7.5,7.5c0,4.1,3.4,7.5,7.5,7.5h16.7
	C448.9,392.9,452.2,389.6,452.2,385.4z"/>
<path class="st1" d="M137,235.1h12c4.1,0,7.5-3.4,7.5-7.5c0-4.1-3.4-7.5-7.5-7.5h-12c-4.1,0-7.5,3.4-7.5,7.5
	C129.5,231.7,132.9,235.1,137,235.1z"/>
<path class="st1" d="M137,256.9h57.9c4.1,0,7.5-3.4,7.5-7.5c0-4.1-3.4-7.5-7.5-7.5H137c-4.1,0-7.5,3.4-7.5,7.5
	C129.5,253.6,132.9,256.9,137,256.9z"/>
<path class="st1" d="M182.9,235.1h12c4.1,0,7.5-3.4,7.5-7.5c0-4.1-3.4-7.5-7.5-7.5h-12c-4.1,0-7.5,3.4-7.5,7.5
	C175.4,231.7,178.8,235.1,182.9,235.1z"/>
<path class="st1" d="M240.8,220.1h-12c-4.1,0-7.5,3.4-7.5,7.5c0,4.1,3.4,7.5,7.5,7.5h12c4.1,0,7.5-3.4,7.5-7.5
	C248.3,223.4,244.9,220.1,240.8,220.1z"/>
<path class="st1" d="M137,278.6h57.9c4.1,0,7.5-3.4,7.5-7.5c0-4.1-3.4-7.5-7.5-7.5H137c-4.1,0-7.5,3.4-7.5,7.5
	C129.5,275.2,132.9,278.6,137,278.6z"/>
<path class="st1" d="M129.5,292.8c0,4.1,3.4,7.5,7.5,7.5h91.8c4.1,0,7.5-3.4,7.5-7.5c0-4.1-3.4-7.5-7.5-7.5H137
	C132.9,285.3,129.5,288.6,129.5,292.8z"/>
<path class="st1" d="M248.3,314.5c0-4.1-3.4-7.5-7.5-7.5H137c-4.1,0-7.5,3.4-7.5,7.5c0,4.1,3.4,7.5,7.5,7.5h103.8
	C244.9,322,248.3,318.6,248.3,314.5z"/>
<path class="st1" d="M165.2,349.4c0-4.1-3.4-7.5-7.5-7.5H137c-4.1,0-7.5,3.4-7.5,7.5v20.7c0,4.1,3.4,7.5,7.5,7.5h20.7
	c4.1,0,7.5-3.4,7.5-7.5V349.4z M150.2,362.6h-5.7v-5.7h5.7V362.6z"/>
<path class="st1" d="M214.8,349.4c0-4.1-3.4-7.5-7.5-7.5h-20.7c-4.1,0-7.5,3.4-7.5,7.5v20.7c0,4.1,3.4,7.5,7.5,7.5h20.7
	c4.1,0,7.5-3.4,7.5-7.5V349.4z M199.8,362.6h-5.7v-5.7h5.7V362.6z"/>
<path class="st1" d="M264.3,349.4c0-4.1-3.4-7.5-7.5-7.5h-20.7c-4.1,0-7.5,3.4-7.5,7.5v20.7c0,4.1,3.4,7.5,7.5,7.5h20.7
	c4.1,0,7.5-3.4,7.5-7.5V349.4z M249.3,362.6h-5.7v-5.7h5.7V362.6z"/>
<path class="st1" d="M157.7,394.6H137c-4.1,0-7.5,3.4-7.5,7.5v20.7c0,4.1,3.4,7.5,7.5,7.5h20.7c4.1,0,7.5-3.4,7.5-7.5v-20.7
	C165.2,397.9,161.8,394.6,157.7,394.6z M150.2,415.2h-5.7v-5.7h5.7V415.2z"/>
<path class="st1" d="M207.3,394.6h-20.7c-4.1,0-7.5,3.4-7.5,7.5v20.7c0,4.1,3.4,7.5,7.5,7.5h20.7c4.1,0,7.5-3.4,7.5-7.5v-20.7
	C214.8,397.9,211.4,394.6,207.3,394.6z M199.8,415.2h-5.7v-5.7h5.7V415.2z"/>
<path class="st1" d="M236.2,430.2h20.7c4.1,0,7.5-3.4,7.5-7.5v-20.7c0-4.1-3.4-7.5-7.5-7.5h-20.7c-4.1,0-7.5,3.4-7.5,7.5v20.7
	C228.7,426.9,232,430.2,236.2,430.2z M243.7,409.6h5.7v5.7h-5.7V409.6z"/>
</svg>
