<?xml version="1.0" encoding="utf-8"?>
<!-- Generator: Adobe Illustrator 23.0.4, SVG Export Plug-In . SVG Version: 6.00 Build 0)  -->
<svg version="1.1" id="Layer_1" xmlns="http://www.w3.org/2000/svg" xmlns:xlink="http://www.w3.org/1999/xlink" x="0px" y="0px"
	 viewBox="0 0 512 512" style="enable-background:new 0 0 512 512;" xml:space="preserve">
<style type="text/css">
	.st0{fill:#DBDBDB;}
	.st1{fill:#4FC1EA;}
</style>
<path class="st0" d="M505.1,234.7C448.8,181,391.2,145.4,333,128.3c0.3-0.8,0.4-1.7,0.4-2.6l-0.3-92c0-6.7,5.4-12.1,12.1-12.1
	l145.1-0.6c4.2,0,7.5-3.4,7.5-7.6c0-4.2-3.4-7.5-7.5-7.5c0,0,0,0,0,0L345.2,6.6c-15,0-27.2,12.2-27.1,27.3l0.3,90.6
	c-81.2-19.4-159.7-2-230.3,42.4c-40.4,25.4-68.9,54-82.3,68.8c-7.6,8.4-7.7,21.2-0.3,29.7c43.6,50.1,90.7,85,140.6,104.4v109.5
	c0,6.2-5,11.2-11.2,11.2H14.7c-4.2,0-7.5,3.4-7.5,7.5c0,4.2,3.4,7.5,7.5,7.5h120.2c14.5,0,26.3-11.8,26.3-26.3V375.2
	c83.5,26.9,167.4,9.1,243.7-33.6c47.7-26.7,83.3-58.2,100.3-74.6C514.3,258.1,514.3,243.5,505.1,234.7z M305.9,361.8
	c-93.6,42.6-194.2-44.9-165.4-143.2c1.2-4-1.1-8.2-5.1-9.4s-8.2,1.1-9.4,5.1c-16.7,57.3,6,118.3,55.6,151
	c-58.8-14.8-114-51.6-164.7-109.8c-2.4-2.8-2.4-6.9,0.1-9.7c18.6-20.5,76.4-78.1,158.8-102.7c-15.2,11.1-27.9,25.3-37.4,41.9
	c-2.1,3.6-0.8,8.2,2.8,10.3s8.2,0.8,10.3-2.8c48.6-85.1,173.5-79.1,214,9.9c7.2,15.8,10.9,32.6,10.9,49.8
	C376.4,299.3,348.7,342.3,305.9,361.8z M494.7,256.1c-20,19.3-74.7,67.6-146.8,95.6c27.3-25.3,43.6-61.2,43.6-99.6
	c0-19.4-4.1-38.3-12.2-56.1c-9-19.7-22.3-36.5-38.6-49.5c51.9,17.6,103.4,50.7,154,99C497.7,248.5,497.7,253.2,494.7,256.1z"/>
<path class="st1" d="M359.2,226.8l-44.8-13.1c-4-1.2-8.2,1.1-9.4,5.1s1.1,8.2,5.1,9.4l24.3,7.1l-71,29.3v-30.5
	c0-5.6-5.9-9.2-10.9-6.8l-101.1,49.4c-3.7,1.8-5.3,6.4-3.5,10.1c1.8,3.7,6.3,5.3,10.1,3.5l90.2-44.1v29.7c0,5.4,5.5,9,10.4,7
	l82.3-34l-11.3,22.5c-2.5,5,1.2,10.9,6.7,10.9c2.8,0,5.4-1.5,6.7-4.2l20.1-39.9C366.1,234.2,364.3,228.3,359.2,226.8z"/>
<path class="st0" d="M490.4,44.5H362.6c-4.2,0-7.5,3.4-7.5,7.5c0,4.2,3.4,7.5,7.5,7.5h127.8c4.2,0,7.5-3.4,7.5-7.5
	C497.9,47.9,494.5,44.5,490.4,44.5z"/>
<path class="st0" d="M490.4,90.5h-17.1c-4.2,0-7.5,3.4-7.5,7.5c0,4.2,3.4,7.5,7.5,7.5h17.1c4.2,0,7.5-3.4,7.5-7.5
	C497.9,93.9,494.5,90.5,490.4,90.5z"/>
<path class="st0" d="M362.6,90.5c-4.2,0-7.5,3.4-7.5,7.5c0,4.2,3.4,7.5,7.5,7.5h80.5c4.2,0,7.5-3.4,7.5-7.5c0-4.2-3.4-7.5-7.5-7.5
	H362.6z"/>
<path class="st0" d="M14.7,473.3h108.6c4.2,0,7.5-3.4,7.5-7.5c0-4.2-3.4-7.5-7.5-7.5H14.7c-4.2,0-7.5,3.4-7.5,7.5
	C7.2,469.9,10.6,473.3,14.7,473.3z"/>
<path class="st0" d="M7.2,431.6c0,4.2,3.4,7.5,7.5,7.5h108.6c4.2,0,7.5-3.4,7.5-7.5c0-4.2-3.4-7.5-7.5-7.5H14.7
	C10.6,424,7.2,427.4,7.2,431.6z"/>
<path class="st0" d="M123.3,404.9c4.2,0,7.5-3.4,7.5-7.5s-3.4-7.5-7.5-7.5H82.1c-4.2,0-7.5,3.4-7.5,7.5s3.4,7.5,7.5,7.5H123.3z"/>
</svg>
