<?xml version="1.0" encoding="utf-8"?>
<!-- Generator: Adobe Illustrator 23.0.4, SVG Export Plug-In . SVG Version: 6.00 Build 0)  -->
<svg version="1.1" id="Layer_1" xmlns="http://www.w3.org/2000/svg" xmlns:xlink="http://www.w3.org/1999/xlink" x="0px" y="0px"
	 viewBox="0 0 512 512" style="enable-background:new 0 0 512 512;" xml:space="preserve">
<style type="text/css">
	.st0{fill:#DBDBDB;}
	.st1{fill:#00EFB7;}
</style>
<title>Innovative</title>
<path class="st0" d="M253.3,93.5c-41.2,0.7-80.7,16.9-110.4,45.4c-30.3,28.7-47.3,66.2-48,105.5c-0.7,40.4,15.1,79.3,43.7,107.9
	c23.5,23.4,35.7,55.8,33.3,87.8h-9c-4.4,0-8,3.6-8,8s3.6,8,8,8h18v43c0.1,4.5,3.7,8,8.2,8h133.7c4.5,0,8.1-3.6,8.2-8v-43h18
	c4.4,0,8-3.6,8-8s-3.6-8-8-8h-10.8c-2.6-33,9-62.4,33.9-87.2c0,0,0.1-0.2,0.1-0.2c28.5-29.2,44.3-66.7,44.3-105.7
	c0-40-16.1-78-45.3-106.8C339.9,109.4,298.1,92.8,253.3,93.5z M315,491H197v-35h118V491z M360.8,341.5
	C333.2,369,319.6,403,322.1,440H188c2.3-37-11.6-72.7-38.1-99.1c-25.5-25.4-39.6-60.1-39-96.2c0.6-34.9,15.9-68.4,43-94.2
	c26.9-25.7,62.5-40.4,99.7-41c40.5-0.6,78.3,14.4,106.4,42.1c26.1,25.8,40.5,59.7,40.5,95.4C400.5,281.8,386.4,315.4,360.8,341.5z"
	/>
<path class="st0" d="M252,61.2c4.4,0,8-3.6,8-8V13c0-4.4-3.6-8-8-8s-8,3.6-8,8v40.1C244,57.6,247.6,61.2,252,61.2z"/>
<path class="st0" d="M439.1,90.7l-36.5,31.7c-3.3,2.9-3.7,8-0.8,11.3c2.9,3.3,8,3.7,11.3,0.8l36.5-31.7c3.3-2.9,3.7-8,0.8-11.3
	C447.5,88.1,442.4,87.8,439.1,90.7z"/>
<path class="st0" d="M102.3,130.9c4.4,0,8-3.6,8-8c0-2.2-0.9-4.3-2.5-5.8l-34.6-33c-3.2-3-8.3-2.9-11.3,0.3s-2.9,8.3,0.3,11.3l0,0
	l34.6,33C98.2,130.1,100.2,130.9,102.3,130.9z"/>
<path class="st1" d="M349.2,247.5c14.1-23,16.5-43.4,6.9-57.5s-29.5-19.1-56.1-14.3c-0.3,0.1-0.6,0.1-0.9,0.2
	c-0.1-0.3-0.2-0.6-0.4-0.8c-11-24.6-26.5-38.2-43.5-38.2c-1.1,0-2.2,0.1-3.3,0.2c-10.5-9.4-26.5-8.5-35.9,2
	c-7.8,8.7-8.6,21.6-2.1,31.2c-0.9,1.8-1.8,3.7-2.6,5.6c-0.3-0.1-0.6-0.1-0.9-0.2c-26.6-4.8-46.5,0.2-56.1,14.3s-7.2,34.4,6.9,57.5
	c2.4,3.9,5,7.8,8,11.7c-0.2,0.3-0.5,0.6-0.7,0.9c-13.7-3-27.3,5.8-30.2,19.5c-2.2,10,1.9,20.4,10.3,26.2c-0.5,8.6,1.4,16.3,5.7,22.5
	c7.2,10.6,20.3,16.1,37.7,16.1c6.2,0,12.3-0.6,18.4-1.8c0.3-0.1,0.6-0.1,0.9-0.2c0.1,0.3,0.2,0.6,0.4,0.8
	c11,24.6,26.5,38.2,43.5,38.2s32.5-13.6,43.5-38.2c0.1-0.3,0.2-0.6,0.4-0.8c0.3,0.1,0.6,0.1,0.9,0.2c6.1,1.1,12.2,1.7,18.4,1.8
	c17.4,0,30.5-5.5,37.7-16.1c4.1-6,6-13.3,5.7-21.5c12.1-7.2,16-22.8,8.8-34.9c-5.8-9.8-17.5-14.5-28.5-11.5
	c-0.3-0.4-0.6-0.8-0.9-1.2C344.1,255.3,346.8,251.4,349.2,247.5z M289.1,323.5c-5.4-1.6-10.8-3.5-16-5.7c5.2-3.1,10.4-6.4,15.6-9.9
	c1.8-1.3,3.7-2.6,5.5-3.9C292.9,310.7,291.2,317.1,289.1,323.5z M221.3,323.5c-2-6.4-3.7-12.8-5-19.4c1.8,1.3,3.6,2.6,5.5,3.9
	c5.1,3.5,10.3,6.8,15.6,9.9C232.1,320,226.8,321.9,221.3,323.5L221.3,323.5z M196.1,265.8c-2.2-2.2-4.2-4.4-6.2-6.7
	c2-2.2,4-4.5,6.2-6.7c-0.1,2.2-0.1,4.4-0.1,6.6C196,261.4,196.1,263.6,196.1,265.8L196.1,265.8z M230.8,294.8
	c-6.2-4.3-12.2-8.8-17.8-13.4c-0.7-7.2-1-14.7-1-22.2s0.3-15,1-22.2c5.6-4.7,11.6-9.2,17.8-13.4c7.8-5.4,16-10.3,24.4-14.7
	c8.4,4.4,16.6,9.4,24.4,14.7c6.2,4.3,12.2,8.8,17.8,13.4c0.7,7.2,1,14.6,1,22.2c0,7.7-0.3,15.1-1,22.2c-5.6,4.6-11.5,9.1-17.8,13.4
	c-7.8,5.4-16,10.3-24.4,14.7C246.8,305.1,238.7,300.2,230.8,294.8L230.8,294.8z M221.3,194.8c5.4,1.6,10.8,3.5,16.1,5.7
	c-5.2,3.1-10.4,6.4-15.6,9.9c-1.9,1.3-3.7,2.6-5.5,3.9C217.6,207.6,219.2,201.1,221.3,194.8z M289.2,194.8c2,6.4,3.7,12.8,5,19.4
	c-1.8-1.3-3.6-2.6-5.5-3.9c-5.1-3.5-10.3-6.8-15.6-9.9C278.4,198.3,283.7,196.4,289.2,194.8L289.2,194.8z M314.3,252.5
	c2.2,2.2,4.2,4.4,6.2,6.7c-2,2.2-4,4.5-6.2,6.7c0.1-2.2,0.1-4.4,0.1-6.7S314.4,254.7,314.3,252.5L314.3,252.5z M342.9,199.1
	c5.8,8.4,3.1,23-7.4,40.1c-1.5,2.4-3.1,4.9-4.9,7.4c-5.7-6.2-11.7-12.1-18-17.6c-1.4-12.8-4.1-25.4-7.9-37.7
	C323.5,188.2,337.4,191,342.9,199.1z M283.3,179.8c-9.6,3-19,6.7-28.1,11.1c-7.7-3.7-15.6-6.9-23.7-9.7c13.9,2,26.7-7.7,28.7-21.6
	c0.2-1.2,0.2-2.4,0.2-3.6c0-0.8,0-1.5-0.1-2.3C268.5,156.5,276.7,165.6,283.3,179.8z M235,146.6c5.2,0,9.4,4.2,9.4,9.4
	c0,5.2-4.2,9.4-9.4,9.4c-5.2,0-9.4-4.2-9.4-9.4c0,0,0,0,0,0C225.6,150.8,229.8,146.6,235,146.6L235,146.6z M175,239.1
	c-10.4-17.1-13.1-31.7-7.4-40.1c5.6-8.1,19.4-11,38.1-7.9c-3.8,12.3-6.4,25-7.9,37.8c-6.3,5.5-12.3,11.4-18,17.6
	C178.1,244,176.5,241.6,175,239.1L175,239.1z M163.3,275.5c5.2,0,9.4,4.2,9.4,9.4c0,5.2-4.2,9.4-9.4,9.4s-9.4-4.2-9.4-9.4
	c0,0,0,0,0,0C153.8,279.7,158,275.5,163.3,275.5L163.3,275.5z M192.1,328.3c-11.8,0-20.5-3.1-24.6-9c-1.7-2.7-2.7-5.7-2.9-8.9
	c14-0.8,24.7-12.8,24-26.8c-0.1-1-0.2-2-0.3-2.9c3,3,6.2,5.9,9.5,8.8c1.4,12.8,4.1,25.4,7.9,37.7
	C201.2,327.8,196.7,328.2,192.1,328.3L192.1,328.3z M255.2,365.4c-9.8,0-20-9.8-28.1-27c9.6-3,19-6.7,28.1-11.1
	c9.1,4.4,18.4,8.1,28,11C275.2,355.5,265,365.4,255.2,365.4L255.2,365.4z M304.8,327.1c3.8-12.3,6.4-24.9,7.9-37.7
	c4-3.5,7.8-7,11.4-10.7c-3.4,13.6,4.9,27.4,18.5,30.8c1.1,0.3,2.2,0.5,3.2,0.6c-0.1,3.2-1.1,6.4-2.9,9
	C337.3,327.3,323.5,330.2,304.8,327.1L304.8,327.1z M358.2,284.9c0,5.2-4.2,9.4-9.4,9.4s-9.4-4.2-9.4-9.4s4.2-9.4,9.4-9.4
	c0,0,0,0,0,0C354,275.5,358.2,279.7,358.2,284.9z"/>
<path class="st1" d="M255.2,233.7c-14,0-25.4,11.4-25.4,25.4c0,14,11.4,25.4,25.4,25.4s25.4-11.4,25.4-25.4c0,0,0,0,0,0
	C280.7,245.1,269.3,233.7,255.2,233.7z M255.2,268.6c-5.2,0-9.4-4.2-9.4-9.4c0-5.2,4.2-9.4,9.4-9.4c5.2,0,9.4,4.2,9.4,9.4
	c0,0,0,0,0,0C264.7,264.3,260.5,268.6,255.2,268.6z"/>
</svg>
